<?xml version="1.0" encoding="UTF-8"?>
<svg width="80px" height="43px" viewBox="0 0 80 43" version="1.1" xmlns="http://www.w3.org/2000/svg" xmlns:xlink="http://www.w3.org/1999/xlink">
    <!-- Generator: Sketch 49.3 (51167) - http://www.bohemiancoding.com/sketch -->
    <title>skonhet-halsa</title>
    <desc>Created with Sketch.</desc>
    <defs></defs>
    <g id="Iconography" stroke="none" stroke-width="1" fill="none" fill-rule="evenodd">
        <g id="skonhet-halsa" transform="translate(-20.000000, -9.000000)" fill="#41A500">
            <path d="M30.8247423,41.7786195 L28.8470103,43.0998566 L28.9187629,43.2466607 C29.6841237,43.0322277 30.4420619,42.7831556 31.2173196,42.6099597 C33.9364948,42.0021246 36.5773196,42.3212999 39.1364948,43.3728463 C42.6581443,44.8186195 46.1591753,46.314702 49.6956701,47.7217123 C51.2684536,48.3476917 52.9072165,48.8078978 54.6276289,49.3810937 C53.5282474,49.4322277 52.4849485,49.5386195 51.4441237,49.5204752 C47.017732,49.4412999 42.8997938,48.1415061 38.8527835,46.4359391 C36.8197938,45.5798566 34.665567,44.9637741 32.5154639,44.4507844 C30.803299,44.0417123 29.0309278,44.2116092 27.3385567,44.7889288 C27.0358763,44.8920216 26.7051546,45.0520216 26.4997938,45.2845989 C24.6540206,47.3728463 22.8338144,49.482537 21.0094845,51.5897535 C20.9509278,51.6573824 20.9303093,51.7588257 20.8923711,51.8445989 C20.6254709,51.7664204 20.3681899,51.6585283 20.1253608,51.5229494 C20.0898969,51.5048051 20.0758763,51.4470731 20,51.3167638 L21.92,48.7023308 L23.0729897,47.4173824 L21.9191753,48.7023308 C21.8754639,48.6099597 21.7682474,48.4697535 21.7954639,48.4334649 C23.7171134,45.9180009 24.0197938,42.8524339 24.6969072,39.9180009 C25.2123711,37.6845989 25.6618557,35.4363515 26.2012371,33.2087226 C27.1826804,29.159238 29.1818557,25.5905783 31.6635052,22.3048051 C33.2857732,20.1563515 35.116701,18.1670731 36.8593814,16.1109906 C37.0070103,15.9377948 37.1942268,15.7975886 37.4573196,15.7101659 C36.9187629,16.7188257 36.3686598,17.722537 35.843299,18.7377948 C32.8472931,24.5425217 30.3511242,30.5918753 28.3818557,36.820269 C27.2338144,40.4433618 25.6923711,43.8949082 23.3913402,46.9621246 C23.3501031,47.0165576 23.3352577,47.0907844 23.3080412,47.1559391 C27.3080412,43.9996504 29.1472165,41.2252174 30.9451546,35.5386195 C31.3878787,34.1174256 31.7872389,32.6830844 32.1426804,31.2375886 C33.1282474,27.300269 34.9905155,23.7670731 37.2519588,20.4549082 C39.1043299,17.7431556 41.1653608,15.1732587 43.1298969,12.5373824 C43.2239175,12.4120216 43.2758763,12.2553205 43.3468041,12.1126401 L43.4861856,12.2577948 C42.694433,13.8874855 41.7863918,15.4726401 41.1340206,17.1567638 C39.9307216,20.2627432 38.7513402,23.3893411 37.7905155,26.5753205 C36.2070103,31.831403 33.5637113,36.4722277 30.1393814,40.711403 C29.9472165,40.9489288 29.7558763,41.1872793 29.6321649,41.5245989 C29.8746392,41.3448051 30.1129897,41.1584133 30.3612371,40.9868669 C31.7410309,40.0293411 33.1307216,39.0866607 34.4989691,38.1118154 C34.8371134,37.8709906 35.1909278,37.5815061 35.3896907,37.2309906 C37.1595876,34.1035679 38.9476289,30.9843927 40.6334021,27.8124339 C44.1138144,21.2606813 48.3150515,15.2144958 53.1727835,9.61614527 C53.2428866,9.53532052 53.3327835,9.47099063 53.5274227,9.29697001 C52.7340206,10.9695473 52.0065979,12.49697 51.2841237,14.0276917 C49.1340206,18.5835679 47.0226804,23.1575886 44.8230928,27.6895473 C43.4861856,30.442537 41.5249485,32.7559391 39.3418557,34.8829494 C39.1756893,35.0371749 39.0399992,35.2212658 38.9418557,35.4256298 C40.6193814,34.5538772 42.5014433,34.0516092 43.6214433,32.308104 C44.9113402,30.2998566 46.4395876,28.4351143 47.6280412,26.3716092 C50.0453608,22.1794442 53.1851546,18.6000628 56.6713402,15.3101659 C58.9237113,13.1848051 61.3096907,11.2012999 63.6371134,9.15593908 C63.7393814,9.06521743 63.8540206,8.99099063 63.84,9.00088753 C61.7369072,11.8784133 59.5463918,14.8606813 57.3723711,17.8544958 C55.6206186,20.2668669 53.8960825,22.6990319 52.1443299,25.1122277 C50.1550515,27.8528463 47.7657732,30.2008875 45.0705155,32.2429494 C44.8841237,32.3848051 44.6985567,32.5266607 44.534433,32.7295473 C52.8585567,29.1897535 61.5282474,26.9975886 70.4890722,25.9204752 L62.1921649,27.6606813 C64.6342268,27.5204752 66.8816495,28.1439803 68.9715464,29.2928463 C70.4395876,30.0994442 71.8449485,31.0305783 73.2247423,31.9831556 C74.5665979,32.9109906 75.814433,33.9732587 77.1505155,34.9109906 C79.9612371,36.8862484 83.0870103,38.1151143 86.4783505,38.8260422 C85.8927835,38.8260422 85.308866,38.8351143 84.7241237,38.8235679 C84.1336082,38.8111968 83.5389691,38.8128463 82.9525773,38.7493411 C78.4420619,38.2553205 74.3917526,36.6751143 70.8808247,33.7390319 C68.7340206,31.9443927 66.4272165,30.359238 63.8457732,29.2408875 C62.854433,28.8120216 61.7954639,28.5357329 60.7645361,28.1967638 C60.6546079,28.1561892 60.5356676,28.1464914 60.4206186,28.1687226 C59.2849485,28.4722277 58.1525773,28.7856298 57.0235052,29.1584133 C59.654433,29.7612999 61.8680412,31.1683102 64.1360825,32.493671 C67.7105155,34.5819185 71.3385567,36.5777948 74.9435052,38.6132587 L75.4960825,38.922537 L75.4713402,39.1328463 C74.5187629,39.0454236 73.5554639,39.0173824 72.6136082,38.8590319 C69.068866,38.2627432 65.9521649,36.6272793 62.9393814,34.7650112 C61.8729897,34.1052174 60.8387629,33.3942896 59.7971134,32.6965576 C58.1690722,31.6070731 56.4618557,30.6932587 54.4742268,30.5109906 C53.7789691,30.4466607 53.0292784,30.4326401 52.3719588,30.6264545 C50.9797938,31.0371762 49.6321649,31.5988257 48.2647423,32.1604752 C51.4746392,31.5633618 54.1534021,32.7872793 56.6358763,34.5827432 C60.3181221,37.2570334 64.381368,39.3627484 68.6894845,40.8293411 C68.7736082,40.8582071 68.8527835,40.9035679 68.9352577,40.9406813 L68.9129897,41.1633618 C67.6940206,41.0643927 66.4610309,41.0462484 65.257732,40.8499597 C61.3525773,40.2099597 57.8020619,38.6132587 54.374433,36.6998566 C52.0181443,35.3852174 49.6280412,34.1390319 46.9814433,33.4841865 C46.0824742,33.2615061 45.2610309,33.3134649 44.3835052,33.7184133 C40.054433,35.7142896 35.8804124,37.9740834 32.0008247,40.7559391 C31.7517526,40.9349082 31.5142268,41.1295473 31.2709278,41.3167638 L31.0136082,41.5839803 L31.2709278,41.3167638 C32.6103093,40.7971762 33.9175258,40.1621246 35.2940206,39.7794442 C39.4762887,38.6165576 43.6181443,39.0660422 47.6065979,40.5868669 C50.2490722,41.594702 52.7661856,42.9299597 55.3426804,44.1109906 C57.3146392,45.0149082 59.2915464,45.9064545 61.2247423,46.7848051 C55.6049485,46.4689288 50.0717526,45.7654236 45.0268041,42.7798566 C40.822268,40.2924339 36.262268,40.2528463 31.6453608,41.5806813 C31.3748454,41.6582071 31.0985567,41.7134649 30.8247423,41.7794442 L30.8247423,41.7786195 Z M82.9402062,11.9856298 C78.5921649,15.5204752 74.2540206,19.0685164 69.8993814,22.5959391 C67.1480412,24.8243927 63.8993814,26.0549082 60.5863918,27.1386195 C59.6536082,27.4437741 58.6993814,27.6854236 57.6898969,27.802537 C57.8762887,27.6870731 58.0593814,27.565836 58.2498969,27.4577948 C61.9076289,25.3934649 65.337732,23.0289288 68.3645361,20.0845989 C70.7439175,17.7703721 73.6263918,16.1596504 76.5534021,14.6553205 C78.5492784,13.6293411 80.6053608,12.7196504 82.636701,11.7629494 C82.8181443,11.6780009 83.017732,11.6285164 83.2082474,11.562537 L83.3731959,11.7629494 C83.2280412,11.8363515 83.0639175,11.885836 82.9402062,11.9856298 Z M61.4523711,43.3967638 C59.0482474,43.1856298 56.796701,42.3740834 54.5971134,41.431403 C52.6639175,40.602537 50.7670103,39.6887226 48.8321649,38.8639803 C46.4603395,37.8428716 43.9244282,37.2559638 41.3451546,37.1311968 C40.4569072,37.0899597 39.5587629,37.249135 38.665567,37.3217123 C38.4445361,37.3398566 38.2251546,37.3777948 38.0016495,37.3596504 C42.2416495,35.1798566 46.5435052,34.4656298 51.0078351,36.7229494 C54.4035002,38.4383906 57.81226,40.1277873 61.2338144,41.7909906 C62.3307216,42.3245989 63.4828866,42.7443927 64.6103093,43.2161453 L64.5880412,43.4116092 C63.542268,43.4116092 62.4907216,43.4874855 61.4523711,43.3967638 Z M71.5389691,26.7476917 C74.9740206,27.0916092 77.9414433,28.5349082 80.5731959,30.6907844 C83.6699616,33.2272756 87.0616528,35.3805897 90.6746392,37.1039803 C90.7983505,37.1633618 90.9121649,37.2400628 90.9979381,37.4561453 C90.4618557,37.380269 89.9224742,37.3217123 89.3896907,37.2268669 C85.2536082,36.493671 81.2964948,35.2656298 77.7921649,32.8656298 C76.7595876,32.1580009 75.8202062,31.3175886 74.8156701,30.5670731 C72.7818557,29.0462484 70.6663918,27.6780009 67.8845361,27.2062484 C69.0492926,26.7677749 70.3011569,26.610656 71.5381443,26.7476917 L71.5389691,26.7476917 Z M66.0717526,17.6450112 C64.054433,19.3538772 62.1641237,21.2128463 60.2136082,23.0017123 C57.3204124,25.6540834 54.105567,27.8437741 50.636701,29.668104 C50.4448841,29.7768531 50.227919,29.8334403 50.0074227,29.8322468 C50.6589691,29.242537 51.3435052,28.685836 51.9546392,28.0590319 C53.9018557,26.0623308 55.8894845,24.0986195 57.737732,22.013671 C60.8123711,18.5431556 64.4701031,15.8610937 68.5748454,13.7885164 C70.7653608,12.6833618 73.0581443,11.7819185 75.3072165,10.794702 C75.5381443,10.6940834 75.7896907,10.6355267 76.0313402,10.5571762 C72.5030928,12.6742896 69.177732,15.0132587 66.0717526,17.6450112 Z M97.1035052,26.148104 C94.131134,25.9790319 91.1579381,25.8215061 88.1830928,25.7159391 C84.7818557,25.5955267 81.3773196,25.559238 77.9769072,25.4355267 C76.9245361,25.3967638 75.8787629,25.1930525 74.6548454,25.0437741 C74.8940206,24.8524339 74.9649485,24.7526401 75.0548454,24.7303721 C81.4103093,23.1443927 87.811134,22.445836 94.2639175,24.0483102 C95.9241237,24.4606813 97.4993814,25.21697 99.1051546,25.8371762 C99.4235052,25.9600628 99.7030928,26.1794442 100,26.3542896 L99.948866,26.4780009 C99.0004124,26.3650112 98.0552577,26.202537 97.1035052,26.148104 Z M93.1447423,16.8870731 C92.8783505,17.0330525 92.7983505,17.0973824 92.7092784,17.1229494 C87.0482474,18.6850112 81.5785567,20.7584133 76.2309278,23.1806813 C73.7341528,24.3178199 71.0931707,25.1070343 68.3818557,25.5262484 C68.2235052,25.5509906 68.0610309,25.5509906 67.8927835,25.5633618 C75.44,20.2990319 83.9793814,18.0087226 93.1447423,16.8870731 Z"></path>
        </g>
    </g>
</svg>