<?xml version="1.0" encoding="UTF-8"?>
<svg width="56px" height="48px" viewBox="0 0 56 48" version="1.1" xmlns="http://www.w3.org/2000/svg" xmlns:xlink="http://www.w3.org/1999/xlink">
    <!-- Generator: Sketch 49.3 (51167) - http://www.bohemiancoding.com/sketch -->
    <title>bygg-fritid-fordon</title>
    <desc>Created with Sketch.</desc>
    <defs></defs>
    <g id="Iconography" stroke="none" stroke-width="1" fill="none" fill-rule="evenodd">
        <g id="bygg-fritid-fordon" transform="translate(-32.000000, -6.000000)" fill="#41A500">
            <path d="M44.0529203,49.9506404 C43.3287912,49.2260024 43.3277735,48.0501081 44.0529203,47.3253657 C44.7781715,46.6002189 45.9540658,46.6007278 46.678195,47.3248569 C47.4034461,48.0501081 47.4034461,49.2260024 46.678195,49.9506404 C45.9540658,50.6753827 44.7781715,50.6758916 44.0529203,49.9506404 M62.356001,38.2118562 L48.6415112,51.925895 C46.8294662,53.7358002 43.8913547,53.735187 42.0804187,51.9237552 C40.2683737,50.1118015 40.2683737,47.1747077 42.0782789,45.361632 L56.9971849,30.442726 L47.541259,20.9868002 C47.1993787,20.6449199 46.7963324,20.3998772 46.3689266,20.2470795 C45.2511322,19.8471906 43.9530231,20.0916331 43.057856,20.9868002 C42.1627802,21.881876 41.9177376,23.1800894 42.3181353,24.2978708 L38.5636498,28.0524607 L32,21.4882107 L35.7539766,17.734234 C36.8728931,18.1346187 38.1699845,17.889576 39.0655691,16.9940045 C39.9607362,16.0988243 40.2056745,14.8017329 39.8052898,13.6829208 L44.182983,9.30522765 L44.1907332,9.31245589 C48.1934188,5.45023825 54.2400665,4.96687228 58.7612808,7.85482966 L57.378155,9.23785102 C53.8573088,8.77323413 50.1695867,9.8822607 47.4651145,12.5867459 L61.1591085,26.2808024 L70.2485715,17.1913394 C69.5130259,14.2236757 70.2942373,10.9571488 72.613825,8.63797855 C74.972842,6.27905295 78.3108293,5.50824034 81.3174395,6.30953161 L77.6934277,9.93353034 C75.933259,11.6942209 75.933259,14.5495599 77.6934277,16.3097286 C79.4546141,18.0709149 82.3098486,18.0709149 84.0701217,16.3097286 L87.6940291,12.6857168 C88.4949159,15.6927314 87.725121,19.0313319 85.366091,21.3903489 C83.0465163,23.7094148 79.7799894,24.491135 76.8128345,23.7554981 L68.920021,31.648052 L82.6342089,45.3621434 C84.4441141,47.1747103 84.444623,50.1117911 82.6320561,51.9242536 C80.8211331,53.7351896 77.8840393,53.7351896 76.0704547,51.9264064 L62.356001,38.2118562 Z"></path>
        </g>
    </g>
</svg>