<?xml version="1.0" encoding="UTF-8"?>
<svg width="53px" height="53px" viewBox="0 0 53 53" version="1.1" xmlns="http://www.w3.org/2000/svg" xmlns:xlink="http://www.w3.org/1999/xlink">
    <!-- Generator: Sketch 49.3 (51167) - http://www.bohemiancoding.com/sketch -->
    <title>spel-pcgaming</title>
    <desc>Created with Sketch.</desc>
    <defs></defs>
    <g id="Iconography" stroke="none" stroke-width="1" fill="none" fill-rule="evenodd">
        <g id="spel-pcgaming" transform="translate(-36.000000, -4.000000)" fill="#41A500" fill-rule="nonzero">
            <path d="M70.9106356,14.9637489 C69.8119566,16.0624279 68.0306284,16.0637159 66.9267973,14.9598848 C65.8268304,13.8599179 65.8281184,12.0785897 66.9267974,10.9799107 C68.0241883,9.88251981 69.8093806,9.87736771 70.9093475,10.9773346 C72.0131786,12.0811657 72.0080265,13.866358 70.9106356,14.9637489 M63.008648,16.9794963 C61.904817,18.0833273 60.1299289,18.0781753 59.0299619,16.9782083 C57.9274189,15.8756653 57.9222668,14.1007771 59.0260978,12.9969461 C60.1234888,11.8995552 61.9086811,11.8944032 63.011224,12.9969461 C64.111191,14.0969131 64.106039,15.8821054 63.008648,16.9794963 M68.4891626,22.4600109 C67.3853316,23.5638419 65.6104434,23.5586898 64.5079004,22.4561468 C63.4066455,21.3548919 63.4027815,19.5812917 64.5066124,18.4774608 C65.6040034,17.3800698 67.3879076,17.3736297 68.4891626,18.4748847 C69.5917056,19.5774277 69.5865535,21.3626199 68.4891626,22.4600109 M54.18444,31.2339863 L51.6663657,33.7520605 L54.0929907,36.1786856 C54.0929907,36.1786856 53.9667651,37.1137863 53.1308416,37.9316774 C52.2936302,38.7405524 51.4924834,38.6787275 51.4924834,38.6787275 L49.1186671,36.3049113 L46.7409867,38.6825916 C46.7409867,38.6825916 46.1407706,38.6748635 45.2610546,37.9522857 C44.3813386,37.2322839 44.1391914,36.1761095 44.1391914,36.1761095 L46.6546896,33.6606113 L44.1404793,31.1464011 C44.1404793,31.1464011 44.3826266,30.3504062 45.145133,29.6239643 C45.9179435,28.9026746 46.7422748,28.639919 46.7422748,28.639919 L49.1985242,31.1167767 L51.5736285,28.7416723 C51.5736285,28.7416723 52.5228974,28.8563059 53.2003946,29.4694023 C53.8817559,30.0786345 54.18444,31.2339863 54.18444,31.2339863 M67.1869769,5.26368893 C54.3660505,2.14153445 52.6040425,14.9907973 52.6040425,14.9907973 C52.4881209,15.8254327 51.907225,16.9910885 51.314737,17.5913046 L49.3608144,19.5452272 C48.7683263,20.1454434 47.5975184,20.7211873 46.7693231,20.8332448 C46.7693231,20.8332448 33.9149082,22.6004048 37.0319106,35.4187552 C40.1514891,48.2371056 50.7776336,54.955405 50.7776336,54.955405 C53.2428992,56.7354452 55.7893098,57.0278252 57.7419444,54.7196978 C59.6894269,52.4192985 58.7556142,42.2632803 58.7556142,42.2632803 C58.6834852,41.4260689 59.1033789,40.256549 59.694579,39.665349 L71.4258425,27.9263573 C72.0196187,27.3325812 73.1891386,26.9126875 74.030214,26.9886805 C74.030214,26.9886805 84.1823681,27.9186291 86.4879194,25.9737227 C88.7921828,24.0249522 88.4998028,21.4733895 86.7210506,19.011988 C86.7210506,19.011988 80.0027513,8.37811532 67.1869769,5.26368893"></path>
        </g>
    </g>
</svg>