<?xml version="1.0" encoding="UTF-8"?>
<svg width="50px" height="47px" viewBox="0 0 50 47" version="1.1" xmlns="http://www.w3.org/2000/svg" xmlns:xlink="http://www.w3.org/1999/xlink">
    <!-- Generator: Sketch 49.3 (51167) - http://www.bohemiancoding.com/sketch -->
    <title>inredning-mobler</title>
    <desc>Created with Sketch.</desc>
    <defs></defs>
    <g id="Iconography" stroke="none" stroke-width="1" fill="none" fill-rule="evenodd">
        <g id="inredning-mobler" transform="translate(-35.000000, -8.000000)" fill="#41A500">
            <path d="M42.1633399,21.7462738 C41.3107455,21.0350688 40.9266096,19.8996959 41.1957603,18.8222415 C42.0245058,15.5106663 44.7185677,8.78786191 53.0111336,8 L66.9882297,8 C75.2816474,8.78786191 77.9757093,15.5106663 78.8044548,18.8222415 C79.0736055,19.8996959 78.6894696,21.0350688 77.8368752,21.7462738 L77.7499975,21.8178202 C76.8360777,22.5801299 76.2551892,23.6678052 76.1299831,24.8508756 L75.6044579,29.8114245 C75.5388737,30.4306414 75.0159038,30.9016551 74.3932799,30.9016551 L45.6069352,30.9016551 C44.9843114,30.9016551 44.4613414,30.4306414 44.3957572,29.8114245 L43.870232,24.8508756 C43.7441741,23.6678052 43.1632857,22.5801299 42.2502176,21.8178202 L42.1633399,21.7462738 Z M45.6617874,54.4335145 L46.8124917,48.3674037 L50.1581366,48.3674037 L46.8124917,54.4335145 L45.6617874,54.4335145 Z M84.9018246,26.090587 C85.2706291,29.0427268 84.7442522,37.8812598 80.8109049,44.8655491 C79.8663223,46.5426303 78.0572211,47.5476866 76.1322828,47.5476866 L43.8674213,47.5476866 C41.942483,47.5476866 40.1333817,46.5426303 39.1887992,44.8655491 C35.2554518,37.8812598 34.7299267,29.0427268 35.0978795,26.090587 C35.5169368,22.7432386 36.6667893,22.116356 39.5959321,22.1333909 C42.5242232,22.1504257 42.6281358,25.6723814 42.6281358,25.6723814 C42.6281358,25.6723814 43.5701631,36.0261644 43.8836044,38.5984271 C44.1970457,41.1706897 47.3357172,40.941571 47.3357172,40.941571 L72.6648386,40.941571 C72.6648386,40.941571 75.8026584,41.1706897 76.1169514,38.5984271 C76.4303927,36.0261644 77.3715683,25.6723814 77.3715683,25.6723814 C77.3715683,25.6723814 77.4754809,22.1504257 80.4046237,22.1333909 C83.3329147,22.116356 84.483619,22.7432386 84.9018246,26.090587 Z M45.9620267,32.5335939 L74.0380181,32.5335939 C74.7986242,32.5335939 75.3795127,33.214988 75.2585652,33.9670767 L74.762851,37.0452745 C74.5184009,38.5673385 73.2041621,39.6865283 71.6633597,39.6865283 L48.3366851,39.6865283 C46.7958827,39.6865283 45.4816439,38.5673385 45.236342,37.0452745 L44.7414795,33.9670767 C44.6205321,33.214988 45.2005688,32.5335939 45.9620267,32.5335939 Z M69.8408009,48.3673185 L73.1881493,48.3673185 L74.3380018,54.4334293 L73.1881493,54.4334293 L69.8408009,48.3673185 Z"></path>
        </g>
    </g>
</svg>