<?xml version="1.0" encoding="UTF-8"?>
<svg width="47px" height="50px" viewBox="0 0 47 50" version="1.1" xmlns="http://www.w3.org/2000/svg" xmlns:xlink="http://www.w3.org/1999/xlink">
    <!-- Generator: Sketch 49.3 (51167) - http://www.bohemiancoding.com/sketch -->
    <title>klader-skor</title>
    <desc>Created with Sketch.</desc>
    <defs></defs>
    <g id="Iconography" stroke="none" stroke-width="1" fill="none" fill-rule="evenodd">
        <g id="klader-skor" transform="translate(-37.000000, -3.000000)" fill="#41A500">
            <path d="M55.5859532,19.5175989 C56.2452309,20.6754911 58.1025083,22.2407992 60.567739,21.9858419 C61.7135158,21.86735 62.708099,21.4057807 63.5694619,20.648431 C64.0084644,20.2624337 64.4608805,19.7107473 64.4985915,19.5175989 C64.4519437,19.5041021 64.4050628,19.488575 64.3572001,19.4769921 C62.9738903,19.1423523 61.5902643,18.8089108 60.2074538,18.4721574 C60.1017264,18.4464121 60.0044199,18.4448477 59.8979935,18.4707928 C58.681937,18.7672223 57.464882,19.0594746 56.2482431,19.3533911 C56.0282675,19.406546 55.8088911,19.4622472 55.5859532,19.5175989 Z M52.2955395,17.9563682 C48.0236566,18.9651137 43.7614761,19.9715627 39.4960171,20.9787938 L39.4960171,30.2095463 L39.7191713,30.2095463 C41.8992393,30.2095463 44.0793073,30.2090138 46.2593754,30.209979 C46.7085296,30.2101787 47.0628736,30.3973526 47.3129548,30.7708351 C47.4623511,30.9939561 47.5176196,31.2445864 47.5175697,31.5126411 C47.5162882,37.7532703 47.5165878,43.9939161 47.5165878,50.2345454 C47.5165878,50.2900135 47.5146573,50.3455816 47.5174532,50.4009166 C47.5192838,50.4374128 47.5280043,50.4735595 47.5338124,50.5109377 C47.5652161,50.5159969 47.586751,50.5225539 47.6083025,50.5225539 C55.8903043,50.5235192 64.1723061,50.5240351 72.4543245,50.5240683 C72.4871594,50.5240683 72.5200609,50.5170454 72.5528126,50.5124688 C72.5577054,50.5117865 72.5622487,50.5068105 72.5664758,50.5032657 C72.5705698,50.4998707 72.574048,50.4957601 72.5913558,50.4782027 L72.5913558,50.2609564 C72.5913558,44.0425111 72.5913558,37.8240659 72.5913724,31.6056206 C72.5913724,31.5335103 72.5910396,31.4614 72.5918217,31.3892897 C72.5942016,31.1726758 72.6571421,30.9726042 72.7736203,30.7924865 C73.021072,30.4098342 73.3757322,30.2107778 73.8322256,30.2103951 C76.0178355,30.2085145 78.2034453,30.2095463 80.3890552,30.2095463 L80.6078159,30.2095463 L80.6078159,20.994454 C80.3714977,20.9049194 67.9311456,17.9805492 67.8049151,17.9841272 C67.7989573,17.9979735 67.7910356,18.0123689 67.7865422,18.0277629 C67.7772892,18.0596825 67.769301,18.0920015 67.7617288,18.1243704 C67.2181805,20.4483595 65.9323935,22.2392681 63.8718492,23.4443075 C62.2167902,24.4122299 60.4267137,24.6984911 58.5462039,24.3244927 C56.9441168,24.0058792 55.5813933,23.2318375 54.4485973,22.0571866 C53.3964657,20.9661791 52.6986283,19.680442 52.3569655,18.202605 C52.3397077,18.1279817 52.3199535,18.0539243 52.2955395,17.9563682 Z M46.1296833,53 C46.0993946,52.9877514 46.0701045,52.9711758 46.0386509,52.9638866 C45.4395179,52.8250913 45.0546189,52.3504413 45.043685,51.7348493 C45.0427031,51.6793977 45.0434687,51.6239129 45.0434687,51.5684447 L45.0434687,32.9309659 L45.0434687,32.681151 C44.9565802,32.6760252 44.8817738,32.667804 44.8069675,32.6677874 C42.6936011,32.6670884 40.5802513,32.6672382 38.4669016,32.6672049 C38.3781492,32.6671883 38.2893301,32.6689024 38.2006609,32.6663229 C37.6580612,32.6505129 37.1835444,32.2699075 37.0595772,31.7400723 C37.0245289,31.5902599 37.0025946,31.4335411 37.0024781,31.2799676 C36.999366,27.5746657 36.9999485,23.8693639 37.000248,20.1640455 C37.0002813,19.8647702 37.0566981,19.5791581 37.2248501,19.3252825 C37.411608,19.0433317 37.6765339,18.8739648 38.0033852,18.7970616 C38.6720324,18.6397436 39.3407128,18.4825754 40.0092601,18.3248081 C42.0525965,17.8426026 44.0958829,17.3601142 46.139186,16.8777756 C48.1878644,16.3941722 50.2365096,15.9104024 52.2853046,15.4272649 C52.5871927,15.3560699 52.8878492,15.2775857 53.19245,15.2204699 C53.8985086,15.0880985 54.5818009,15.6457094 54.6150019,16.3659472 C54.6279994,16.6479146 54.6551926,16.9292663 54.6773266,17.2107845 C54.6798396,17.2427873 54.6914392,17.2740745 54.7041205,17.3283943 C56.075165,16.9965837 57.439353,16.6664373 58.8094822,16.334843 L58.8094822,13.8569975 C58.7322129,13.8338317 58.6588378,13.8105327 58.5847138,13.7898299 C56.5921858,13.2327848 55.0835941,11.6412987 54.66829,9.61663485 C54.0550611,6.62712732 55.9415288,3.81953483 58.7806747,3.14992242 C61.7072917,2.45965714 64.6095945,4.21575046 65.374533,7.12585843 C65.4864845,7.55179689 65.539706,7.98579014 65.55059,8.42414362 C65.5660172,9.04702495 65.187359,9.55024943 64.6096278,9.69390422 C63.849632,9.88287552 63.103782,9.32268506 63.0843274,8.53747647 C63.0746084,8.14523831 63.0261965,7.76153755 62.8734218,7.40023709 C62.4101717,6.30478607 61.5917454,5.6549445 60.408657,5.49319972 C58.9403725,5.29246245 57.4360912,6.26316412 57.0893525,7.8564975 C56.7219944,9.54460775 57.8335716,11.1648015 59.4881313,11.4687699 C59.6779847,11.5036517 59.8732134,11.5255195 60.0659624,11.5255361 C60.7264217,11.5255694 61.2841491,12.0923002 61.2799719,12.7498471 C61.272949,13.8536358 61.2775755,14.9574911 61.2786905,16.0613131 C61.2790233,16.3847195 61.2479026,16.322661 61.5393727,16.3938227 C62.7502535,16.6894866 63.961983,16.9816058 65.1734462,17.2747901 C65.2426109,17.291532 65.3123081,17.3060773 65.390809,17.3236846 C65.4509869,17.1447152 65.4546648,16.9672769 65.4696261,16.7925513 C65.4856191,16.6051111 65.476932,16.4144756 65.5059059,16.2294318 C65.6120826,15.5514152 66.259328,15.088215 66.929656,15.2256623 C67.5371767,15.3502285 68.1387894,15.5037355 68.7426155,15.646192 C71.0609463,16.1931187 73.3790607,16.7409607 75.6973748,17.2880372 C77.8270172,17.790596 79.9568093,18.2925224 82.0865017,18.7948815 C82.5283001,18.8990778 82.8405395,19.155433 83.0040484,19.5830191 C83.0329391,19.6585743 83.0517281,19.7379905 83.0751935,19.8156094 L83.0751935,31.6315158 C83.0633443,31.6554138 83.0432905,31.6785131 83.0409773,31.7033099 C83.0243185,31.8812974 82.9446527,32.0331401 82.8397241,32.1706539 C82.5842176,32.5054601 82.2462161,32.6691853 81.82091,32.6686028 C79.6470995,32.6655573 77.4732722,32.6671051 75.2994617,32.6676875 C75.2236069,32.6677042 75.1477521,32.6745274 75.0516605,32.679154 L75.0516605,32.9214799 C75.0516605,39.1213026 75.0516605,45.3211253 75.0516105,51.5209481 C75.0516105,51.6041254 75.0523262,51.687336 75.0503957,51.7704634 C75.0369155,52.3515231 74.6581741,52.8213468 74.0936234,52.9599424 C74.05751,52.968796 74.0235601,52.9864533 73.988595,53 L46.1296833,53 Z"></path>
        </g>
    </g>
</svg>